<?xml version="1.0" standalone="no"?>
<!DOCTYPE svg PUBLIC "-//W3C//DTD SVG 20010904//EN"
 "http://www.w3.org/TR/2001/REC-SVG-20010904/DTD/svg10.dtd">
<svg version="1.0" xmlns="http://www.w3.org/2000/svg"
 width="2048.000000pt" height="2048.000000pt" viewBox="0 0 2048.000000 2048.000000"
 preserveAspectRatio="xMidYMid meet">

<g transform="translate(0.000000,2048.000000) scale(0.100000,-0.100000)"
fill="#000000" stroke="none">
<path d="M9925 16744 c-403 -39 -676 -115 -1000 -278 -169 -86 -334 -191 -475
-302 -109 -87 -337 -315 -424 -424 -248 -312 -429 -686 -509 -1050 -54 -241
-62 -325 -61 -620 1 -250 3 -288 27 -420 82 -458 245 -827 525 -1190 81 -105
328 -353 442 -444 381 -304 838 -496 1333 -561 139 -18 489 -20 635 -4 352 39
793 190 1065 365 37 24 69 44 72 44 2 0 81 -91 176 -201 l171 -202 -16 -33
c-27 -58 -40 -162 -27 -224 22 -108 56 -160 244 -379 l78 -90 -33 -5 c-371
-60 -605 -116 -874 -207 -391 -132 -760 -335 -976 -537 -59 -56 -67 -60 -79
-45 -8 9 -54 50 -104 92 -319 265 -816 496 -1320 611 -185 42 -456 80 -770
107 -166 14 -676 8 -870 -11 -367 -36 -674 -88 -950 -163 -212 -57 -406 -123
-430 -147 -17 -17 -24 -43 -34 -126 -6 -58 -14 -115 -17 -127 -3 -17 -41 -40
-172 -104 -205 -100 -377 -195 -414 -229 -24 -21 -30 -37 -36 -92 -5 -37 -11
-70 -14 -73 -2 -3 -54 -14 -115 -25 -206 -37 -287 -74 -342 -154 -43 -63 -49
-92 -81 -356 -107 -888 -164 -1359 -185 -1525 -42 -322 -84 -661 -140 -1135
-30 -250 -80 -657 -110 -905 -152 -1247 -146 -1191 -135 -1240 23 -104 63
-164 143 -219 104 -71 -109 -66 2743 -66 l2572 0 59 -57 c97 -96 266 -181 443
-223 132 -32 387 -39 515 -15 231 43 454 152 536 262 l24 32 2610 3 c2547 3
2611 3 2660 22 33 13 71 41 112 81 53 53 64 71 83 134 18 60 21 85 16 144 -7
67 -93 774 -151 1242 -34 271 -145 1184 -200 1645 -25 206 -52 425 -60 485 -8
61 -33 268 -55 460 -23 193 -64 526 -91 740 -46 364 -51 394 -80 453 -53 108
-130 149 -364 193 l-113 22 -7 61 c-4 33 -11 69 -16 78 -13 24 -166 114 -403
238 l-201 105 -18 125 c-10 68 -24 134 -32 147 -20 30 -168 77 -509 163 l-269
67 -89 109 c-102 125 -124 151 -432 517 -124 148 -284 339 -356 426 -148 181
-176 208 -256 247 -54 27 -68 29 -173 30 l-113 0 -43 50 c-23 27 -101 121
-174 209 l-131 159 24 26 c90 97 233 327 331 533 301 632 334 1409 85 2062
-198 520 -552 964 -1017 1275 -320 213 -705 363 -1083 420 -129 20 -472 34
-575 24z m327 -185 c701 -49 1310 -361 1766 -904 171 -204 351 -528 431 -775
152 -473 170 -914 54 -1374 -136 -541 -411 -975 -853 -1346 -162 -136 -423
-286 -657 -376 -312 -121 -614 -171 -965 -161 -371 10 -659 82 -1003 252 -254
125 -409 234 -617 434 -400 384 -638 830 -741 1386 -19 106 -22 153 -22 395 0
318 14 422 91 686 122 423 330 764 665 1089 428 415 972 656 1579 698 96 7
123 7 272 -4z m1942 -4488 c88 -104 159 -191 158 -195 0 -4 -47 -46 -104 -93
-57 -47 -126 -108 -154 -136 -29 -27 -57 -48 -62 -46 -6 2 -80 85 -165 184
l-156 180 62 55 c34 30 105 96 157 147 52 51 97 92 100 92 3 0 77 -85 164
-188z m525 -286 c45 -23 71 -52 456 -514 204 -245 435 -521 515 -615 338 -396
611 -728 620 -752 16 -40 11 -125 -9 -169 -10 -24 -45 -64 -82 -96 -35 -30
-126 -109 -202 -174 -187 -162 -208 -175 -275 -175 -89 0 -132 31 -269 193
-65 77 -195 231 -289 341 -93 111 -264 314 -378 451 -115 138 -319 382 -455
543 -135 162 -258 312 -273 334 -33 50 -45 116 -29 169 13 43 30 60 217 220
67 57 155 135 197 173 42 37 94 75 114 82 42 16 100 11 142 -11z m-4608 -1225
c816 -68 1588 -365 1974 -759 l60 -62 3 -2432 c2 -1338 0 -2442 -5 -2455 -8
-21 -11 -20 -88 41 -449 355 -1118 634 -1870 781 -358 69 -710 99 -1185 99
-444 1 -721 -18 -1050 -69 -130 -21 -379 -70 -467 -93 -71 -19 -73 -19 -73 0
0 16 66 615 90 814 5 44 16 161 25 260 9 99 24 252 35 340 11 88 31 275 45
415 14 140 34 320 45 400 11 80 33 276 50 435 17 160 32 301 35 315 2 14 34
293 70 620 65 591 111 997 120 1055 4 26 12 33 43 42 20 5 105 31 187 56 192
59 317 88 535 126 277 48 512 74 750 85 124 6 539 -3 671 -14z m4276 -72 c31
-40 138 -170 237 -288 161 -192 302 -359 714 -840 68 -80 143 -160 166 -178
98 -76 280 -94 396 -39 77 36 506 400 542 459 42 67 61 157 56 258 -6 111 -27
158 -125 272 -43 50 -113 131 -155 181 -43 49 -78 93 -78 98 0 8 41 -1 150
-36 41 -13 114 -36 162 -50 77 -23 87 -29 92 -53 6 -27 107 -925 241 -2142 41
-371 95 -853 120 -1070 37 -327 83 -746 145 -1330 12 -106 12 -133 2 -126 -17
10 -413 87 -547 106 -682 95 -1541 86 -2139 -25 -606 -112 -1097 -280 -1541
-528 -116 -65 -353 -221 -431 -285 l-62 -50 -7 672 c-4 369 -5 1475 -3 2459
l4 1787 50 51 c221 227 620 447 1074 594 191 61 492 127 730 159 157 21 142
25 207 -56z m2739 -740 c42 -23 53 -35 58 -61 3 -18 40 -315 81 -662 41 -346
95 -799 120 -1005 25 -206 61 -508 81 -670 19 -162 52 -439 74 -615 21 -176
51 -419 65 -540 14 -121 46 -386 70 -590 53 -430 93 -795 88 -795 -2 0 -43 16
-91 36 -447 185 -1158 344 -1782 398 -556 49 -1198 45 -1670 -10 -452 -52
-933 -153 -1278 -268 -89 -30 -160 -51 -157 -47 2 5 65 43 140 86 560 321
1379 538 2206 586 373 21 910 0 1261 -51 193 -28 504 -92 663 -135 112 -31
133 -34 158 -24 57 24 58 43 21 364 -18 160 -51 466 -74 680 -46 447 -67 637
-144 1325 -30 272 -69 619 -85 770 -17 151 -51 455 -76 675 -41 367 -75 690
-75 723 0 12 184 -78 346 -170z m-9436 142 c0 -17 -15 -164 -34 -328 -19 -163
-38 -328 -41 -367 -4 -38 -18 -167 -31 -285 -14 -118 -33 -294 -44 -390 -10
-96 -37 -337 -59 -535 -22 -198 -54 -488 -71 -645 -30 -275 -48 -440 -90 -817
-42 -375 -99 -922 -106 -1006 -6 -77 -5 -90 12 -108 36 -41 57 -41 197 -4 257
67 609 132 862 160 408 44 956 46 1330 5 661 -73 1242 -227 1724 -456 124 -59
345 -183 338 -191 -3 -2 -34 7 -71 21 -275 104 -811 221 -1256 275 -574 70
-1298 80 -1830 25 -609 -62 -1387 -240 -1746 -399 -31 -14 -59 -23 -61 -21 -5
5 19 225 78 706 27 223 56 468 65 545 8 77 26 237 40 355 14 118 34 291 45
384 11 93 31 255 44 360 30 226 197 1619 219 1821 20 178 87 729 89 731 7 6
384 193 390 193 4 1 7 -13 7 -29z m-620 -420 c0 -20 -138 -1173 -145 -1210 -2
-14 -18 -151 -35 -305 -17 -154 -42 -363 -55 -465 -14 -102 -52 -423 -85 -715
-32 -291 -73 -633 -89 -760 -17 -126 -46 -369 -66 -540 -19 -170 -51 -447 -71
-615 -38 -323 -37 -334 9 -364 21 -14 606 -16 5706 -16 5418 0 5685 0 5703 17
11 10 24 26 29 35 10 18 -16 296 -71 763 -56 475 -129 1091 -170 1425 -67 549
-129 1074 -150 1260 -11 96 -42 362 -70 590 -28 228 -62 516 -76 640 -14 124
-27 235 -31 248 -3 12 -3 22 -1 22 29 0 225 -43 246 -54 42 -22 58 -65 76
-211 75 -588 313 -2528 416 -3380 33 -275 74 -608 90 -740 63 -510 80 -661 80
-700 0 -49 -26 -102 -63 -129 l-28 -21 -2646 -5 -2646 -5 -26 -35 c-110 -148
-278 -237 -506 -270 -100 -14 -236 -12 -341 5 -225 36 -342 100 -485 264 l-36
41 -2630 0 -2630 0 -34 23 c-46 31 -79 83 -79 124 0 19 18 177 40 351 47 380
184 1499 235 1917 20 165 85 694 145 1175 60 481 114 922 120 980 29 285 64
538 76 565 20 44 60 63 171 84 122 23 123 23 123 11z m2792 -4390 c744 -58
1361 -181 1819 -362 l134 -53 -580 -6 c-806 -9 -3769 -11 -4113 -2 l-282 6 41
19 c23 10 107 41 188 69 535 185 1247 312 1891 338 236 10 729 5 902 -9z
m5628 10 c361 -20 772 -68 1075 -126 330 -63 834 -204 997 -278 l53 -24 -2462
-1 c-1354 -1 -2470 -4 -2480 -7 -13 -5 -15 -4 -8 4 13 14 208 89 367 141 411
133 868 222 1403 271 283 27 777 36 1055 20z"/>
<path d="M9929 16280 c-347 -27 -711 -151 -1007 -343 -470 -306 -812 -781
-941 -1307 -39 -160 -48 -220 -62 -413 -37 -522 134 -1064 471 -1487 89 -112
281 -297 400 -386 224 -168 435 -274 718 -360 186 -56 318 -76 552 -81 246 -6
377 8 603 66 368 95 684 273 966 545 349 338 555 736 643 1242 30 173 32 493
4 659 -63 383 -207 725 -425 1010 -65 86 -241 265 -346 353 -431 361 -1010
546 -1576 502z m352 -190 c256 -26 435 -76 689 -193 240 -110 494 -305 667
-510 193 -230 331 -492 404 -764 44 -165 58 -264 65 -453 12 -324 -36 -581
-165 -883 -236 -550 -754 -993 -1334 -1142 -476 -121 -951 -69 -1399 156 -309
155 -617 440 -808 748 -248 400 -344 885 -269 1360 79 502 373 987 783 1293
386 288 902 434 1367 388z"/>
<path d="M9170 15618 c-250 -158 -453 -362 -604 -607 -83 -135 -186 -374 -186
-431 0 -33 23 -71 51 -86 71 -36 119 -4 155 106 39 117 135 306 205 405 119
168 361 390 500 461 66 33 92 69 86 118 -7 49 -34 76 -83 83 -34 4 -49 -2
-124 -49z"/>
<path d="M9945 15410 c-90 -14 -212 -57 -286 -100 -184 -108 -304 -338 -312
-598 l-2 -77 55 -2 c30 -2 100 -8 154 -13 115 -12 116 -11 116 66 0 139 48
263 137 352 81 83 141 105 288 106 103 1 114 -1 177 -31 216 -102 288 -362
169 -608 -45 -93 -90 -154 -218 -293 -213 -232 -281 -367 -289 -577 -3 -60 -6
-131 -8 -157 l-3 -48 147 0 148 0 4 128 c4 106 9 138 31 195 40 103 101 188
251 351 75 82 157 177 181 211 127 177 172 389 126 587 -63 272 -229 437 -494
492 -95 20 -292 28 -372 16z"/>
<path d="M9910 12948 l0 -188 175 0 175 0 0 189 0 188 -175 -1 -175 -1 0 -187z"/>
</g>
</svg>
